<mxfile host="app.diagrams.net" modified="2020-12-19T03:15:30.319Z" agent="5.0 (Macintosh; Intel Mac OS X 11_1_0) AppleWebKit/537.36 (KHTML, like Gecko) Chrome/87.0.4280.88 Safari/537.36" etag="JWl7NRiMXO49NvN4Onpr" version="14.1.1" type="github">
  <diagram id="Ph6nvh0KX0OQH2NLPqCL" name="Page-1">
    <mxGraphModel dx="1426" dy="769" grid="1" gridSize="10" guides="1" tooltips="1" connect="1" arrows="1" fold="1" page="1" pageScale="1" pageWidth="827" pageHeight="1169" math="0" shadow="0">
      <root>
        <mxCell id="0" />
        <mxCell id="1" parent="0" />
        <mxCell id="s04vDubmSI25b-BMHzst-4" style="edgeStyle=orthogonalEdgeStyle;rounded=0;orthogonalLoop=1;jettySize=auto;html=1;exitX=0.5;exitY=1;exitDx=0;exitDy=0;strokeColor=#99CCFF;" parent="1" source="s04vDubmSI25b-BMHzst-6" edge="1">
          <mxGeometry relative="1" as="geometry">
            <mxPoint x="193" y="170" as="targetPoint" />
          </mxGeometry>
        </mxCell>
        <mxCell id="s04vDubmSI25b-BMHzst-5" style="edgeStyle=orthogonalEdgeStyle;rounded=0;orthogonalLoop=1;jettySize=auto;html=1;exitX=1;exitY=0.5;exitDx=0;exitDy=0;strokeColor=#99CCFF;" parent="1" source="s04vDubmSI25b-BMHzst-6" edge="1">
          <mxGeometry relative="1" as="geometry">
            <mxPoint x="323" y="101" as="targetPoint" />
          </mxGeometry>
        </mxCell>
        <mxCell id="s04vDubmSI25b-BMHzst-6" value="&lt;font face=&quot;Comic Sans MS&quot;&gt;内存池还有余额空间&lt;/font&gt;" style="rhombus;whiteSpace=wrap;html=1;strokeWidth=2;fillWeight=-1;hachureGap=8;fillStyle=cross-hatch;sketch=0;shadow=1;glass=0;fillColor=#dae8fc;dashed=1;strokeColor=#6c8ebf;" parent="1" vertex="1">
          <mxGeometry x="133" y="70" width="120" height="60" as="geometry" />
        </mxCell>
        <mxCell id="s04vDubmSI25b-BMHzst-8" value="&lt;font color=&quot;#007fff&quot; face=&quot;Comic Sans MS&quot;&gt;迭代器模式：提供一种方法顺序访问一个聚合对象中各个元素，而又不需要暴露对象的内部表示&lt;br&gt;&lt;/font&gt;" style="rounded=1;whiteSpace=wrap;html=1;labelBackgroundColor=none;fontSize=15;fillColor=#ffe6cc;strokeColor=#d79b00;align=left;shadow=1;sketch=0;glass=0;" parent="1" vertex="1">
          <mxGeometry x="197" y="351" width="453" height="39" as="geometry" />
        </mxCell>
        <mxCell id="s04vDubmSI25b-BMHzst-9" value="&lt;font face=&quot;Comic Sans MS&quot;&gt;&lt;span style=&quot;font-size: 14px&quot;&gt;否&lt;/span&gt;&lt;/font&gt;" style="rounded=1;whiteSpace=wrap;html=1;shadow=1;glass=0;sketch=0;strokeColor=none;fillColor=none;" parent="1" vertex="1">
          <mxGeometry x="133" y="133" width="50" height="15" as="geometry" />
        </mxCell>
        <mxCell id="s04vDubmSI25b-BMHzst-10" value="&lt;font face=&quot;Comic Sans MS&quot;&gt;&lt;span style=&quot;font-size: 14px&quot;&gt;是&lt;/span&gt;&lt;/font&gt;" style="rounded=1;whiteSpace=wrap;html=1;shadow=1;glass=0;sketch=0;strokeColor=none;fillColor=none;" parent="1" vertex="1">
          <mxGeometry x="260" y="101" width="50" height="15" as="geometry" />
        </mxCell>
        <mxCell id="s04vDubmSI25b-BMHzst-11" value="" style="shape=curlyBracket;whiteSpace=wrap;html=1;rounded=1;fillColor=#dae8fc;strokeColor=#6c8ebf;strokeWidth=2;" parent="1" vertex="1">
          <mxGeometry x="320" y="28" width="20" height="140" as="geometry" />
        </mxCell>
        <mxCell id="s04vDubmSI25b-BMHzst-12" value="&lt;font color=&quot;#007fff&quot; face=&quot;Comic Sans MS&quot;&gt;迭代器是一种智能指针：一种行为类似指针的对象，它内部封装了一个原始指针，并重载了operator*() 和operator-&amp;gt;()等操作。&lt;br&gt;&lt;/font&gt;" style="rounded=1;whiteSpace=wrap;html=1;labelBackgroundColor=none;fontSize=15;fillColor=#ffe6cc;strokeColor=#d79b00;align=left;shadow=1;sketch=0;glass=0;" parent="1" vertex="1">
          <mxGeometry x="197" y="407" width="453" height="43" as="geometry" />
        </mxCell>
        <mxCell id="s04vDubmSI25b-BMHzst-13" value="&lt;font color=&quot;#007fff&quot; face=&quot;Comic Sans MS&quot;&gt;（c）水量=0：调用malloc()从heap中配置内存（2倍需求量）&lt;br&gt;&lt;/font&gt;" style="rounded=1;whiteSpace=wrap;html=1;labelBackgroundColor=none;fontSize=15;fillColor=#ffe6cc;strokeColor=#d79b00;align=left;shadow=1;sketch=0;glass=0;" parent="1" vertex="1">
          <mxGeometry x="350" y="127.5" width="450" height="42" as="geometry" />
        </mxCell>
        <mxCell id="s04vDubmSI25b-BMHzst-14" value="&lt;span style=&quot;font-family: &amp;#34;courier new&amp;#34; ; font-size: 15px ; background-color: rgb(239 , 239 , 239)&quot;&gt;非类类型的原生指针&lt;/span&gt;" style="text;whiteSpace=wrap;html=1;" parent="1" vertex="1">
          <mxGeometry x="122" y="720" width="142" height="30" as="geometry" />
        </mxCell>
        <mxCell id="s04vDubmSI25b-BMHzst-16" value="&lt;div style=&quot;text-align: left ; font-size: 17px&quot;&gt;&lt;font color=&quot;#007fff&quot; face=&quot;comic sans ms&quot; style=&quot;font-size: 17px&quot;&gt;int*&lt;/font&gt;&lt;/div&gt;&lt;div style=&quot;text-align: left ; font-size: 17px&quot;&gt;&lt;font color=&quot;#007fff&quot; face=&quot;comic sans ms&quot; style=&quot;font-size: 17px&quot;&gt;char*&lt;/font&gt;&lt;/div&gt;&lt;div style=&quot;text-align: left ; font-size: 17px&quot;&gt;&lt;font color=&quot;#007fff&quot; face=&quot;comic sans ms&quot; style=&quot;font-size: 17px&quot;&gt;double*&lt;/font&gt;&lt;/div&gt;&lt;div style=&quot;text-align: left ; font-size: 17px&quot;&gt;&lt;font color=&quot;#007fff&quot; face=&quot;comic sans ms&quot; style=&quot;font-size: 17px&quot;&gt;...&lt;/font&gt;&lt;/div&gt;" style="rounded=1;whiteSpace=wrap;html=1;dashed=1;labelBackgroundColor=none;fontSize=15;fillColor=none;strokeWidth=2;" parent="1" vertex="1">
          <mxGeometry x="30" y="520" width="340" height="190" as="geometry" />
        </mxCell>
        <mxCell id="s04vDubmSI25b-BMHzst-107" value="" style="shape=curlyBracket;whiteSpace=wrap;html=1;rounded=1;fillColor=#dae8fc;strokeColor=#6c8ebf;strokeWidth=2;" parent="1" vertex="1">
          <mxGeometry x="155" y="360" width="30" height="90" as="geometry" />
        </mxCell>
        <mxCell id="s04vDubmSI25b-BMHzst-109" value="&lt;font face=&quot;Comic Sans MS&quot; style=&quot;font-size: 15px;&quot;&gt;STL 迭代器&lt;/font&gt;" style="rounded=0;whiteSpace=wrap;html=1;fillColor=#d5e8d4;strokeColor=#82b366;dashed=1;fontSize=15;" parent="1" vertex="1">
          <mxGeometry x="40" y="382.75" width="103" height="44.5" as="geometry" />
        </mxCell>
        <mxCell id="s04vDubmSI25b-BMHzst-111" value="&lt;div style=&quot;text-align: left ; font-size: 16px&quot;&gt;&lt;font color=&quot;#cc99ff&quot; face=&quot;Verdana&quot; style=&quot;font-size: 16px&quot;&gt;template&amp;lt;class T&amp;gt;&lt;/font&gt;&lt;/div&gt;&lt;div style=&quot;text-align: left ; font-size: 16px&quot;&gt;&lt;font face=&quot;Verdana&quot; style=&quot;font-size: 16px&quot;&gt;&lt;font color=&quot;#cc99ff&quot; style=&quot;font-size: 16px&quot;&gt;struct&lt;/font&gt;&lt;font color=&quot;#007fff&quot; style=&quot;font-size: 16px&quot;&gt; &lt;/font&gt;MyIter&lt;font color=&quot;#007fff&quot; style=&quot;font-size: 16px&quot;&gt; {&lt;/font&gt;&lt;/font&gt;&lt;/div&gt;&lt;div style=&quot;text-align: left ; font-size: 16px&quot;&gt;&lt;font face=&quot;Verdana&quot; style=&quot;font-size: 16px&quot;&gt;&lt;font color=&quot;#007fff&quot; style=&quot;font-size: 16px&quot;&gt;&amp;nbsp; &amp;nbsp; &amp;nbsp; &lt;/font&gt;&lt;font color=&quot;#cc99ff&quot; style=&quot;font-size: 16px&quot;&gt;typedef&lt;/font&gt;&lt;font color=&quot;#007fff&quot; style=&quot;font-size: 16px&quot;&gt; &lt;/font&gt;T value_type;&lt;/font&gt;&lt;/div&gt;&lt;div style=&quot;text-align: left ; font-size: 16px&quot;&gt;&lt;font color=&quot;#007fff&quot; face=&quot;Verdana&quot; style=&quot;font-size: 16px&quot;&gt;&amp;nbsp; &amp;nbsp; &amp;nbsp; &amp;nbsp;T* ptr;&lt;/font&gt;&lt;/div&gt;&lt;div style=&quot;text-align: left ; font-size: 16px&quot;&gt;&lt;font color=&quot;#007fff&quot; face=&quot;Verdana&quot; style=&quot;font-size: 16px&quot;&gt;&amp;nbsp; &amp;nbsp; &amp;nbsp; &amp;nbsp; MyIter(T* p=0) {return *ptr}&lt;/font&gt;&lt;/div&gt;&lt;div style=&quot;text-align: left ; font-size: 16px&quot;&gt;&lt;font face=&quot;Verdana&quot; style=&quot;font-size: 16px&quot;&gt;&lt;font color=&quot;#007fff&quot; style=&quot;font-size: 16px&quot;&gt;&amp;nbsp; &amp;nbsp; &amp;nbsp; &amp;nbsp; T&amp;amp; operator*() const {return *ptr&lt;/font&gt;&lt;span style=&quot;color: rgb(0 , 127 , 255)&quot;&gt;}&lt;/span&gt;&lt;/font&gt;&lt;/div&gt;&lt;div style=&quot;text-align: left ; font-size: 16px&quot;&gt;&lt;span style=&quot;color: rgb(0 , 127 , 255)&quot;&gt;&lt;font face=&quot;Verdana&quot; style=&quot;font-size: 16px&quot;&gt;&amp;nbsp; &amp;nbsp; &amp;nbsp; &amp;nbsp; //...&lt;/font&gt;&lt;/span&gt;&lt;/div&gt;&lt;div style=&quot;text-align: left ; font-size: 16px&quot;&gt;&lt;font color=&quot;#007fff&quot; face=&quot;Verdana&quot; style=&quot;font-size: 16px&quot;&gt;};&lt;/font&gt;&lt;/div&gt;" style="rounded=1;whiteSpace=wrap;html=1;dashed=1;labelBackgroundColor=none;fontSize=15;fillColor=none;strokeWidth=2;" parent="1" vertex="1">
          <mxGeometry x="385" y="520" width="405" height="190" as="geometry" />
        </mxCell>
        <mxCell id="s04vDubmSI25b-BMHzst-112" value="使用内嵌声明" style="ellipse;whiteSpace=wrap;html=1;dashed=1;strokeColor=#000000;fillColor=none;gradientColor=none;fontSize=15;" parent="1" vertex="1">
          <mxGeometry x="620" y="520" width="70" height="70" as="geometry" />
        </mxCell>
        <mxCell id="s04vDubmSI25b-BMHzst-116" value="" style="endArrow=none;dashed=1;html=1;fontSize=15;startArrow=block;startFill=1;entryX=0;entryY=0.5;entryDx=0;entryDy=0;" parent="1" target="s04vDubmSI25b-BMHzst-112" edge="1">
          <mxGeometry width="50" height="50" relative="1" as="geometry">
            <mxPoint x="544" y="575" as="sourcePoint" />
            <mxPoint x="594" y="525" as="targetPoint" />
          </mxGeometry>
        </mxCell>
        <mxCell id="s04vDubmSI25b-BMHzst-117" value="&lt;font face=&quot;courier new&quot;&gt;&lt;span style=&quot;font-size: 15px ; background-color: rgb(239 , 239 , 239)&quot;&gt;类类型的迭代器&lt;/span&gt;&lt;/font&gt;" style="text;whiteSpace=wrap;html=1;" parent="1" vertex="1">
          <mxGeometry x="533" y="720" width="117" height="30" as="geometry" />
        </mxCell>
        <mxCell id="s04vDubmSI25b-BMHzst-119" value="&lt;div style=&quot;color: rgb(238 , 255 , 255) ; font-family: &amp;#34;menlo&amp;#34; , &amp;#34;monaco&amp;#34; , &amp;#34;courier new&amp;#34; , monospace ; font-size: 15px ; font-style: normal ; font-weight: 400 ; letter-spacing: normal ; text-align: left ; text-indent: 0px ; text-transform: none ; word-spacing: 0px&quot;&gt;&lt;span style=&quot;color: rgb(199 , 146 , 234)&quot;&gt;&amp;nbsp;&amp;nbsp;&lt;/span&gt;&lt;/div&gt;&lt;div style=&quot;color: rgb(238 , 255 , 255) ; font-family: &amp;#34;menlo&amp;#34; , &amp;#34;monaco&amp;#34; , &amp;#34;courier new&amp;#34; , monospace ; font-size: 15px ; font-style: normal ; font-weight: 400 ; letter-spacing: normal ; text-align: left ; text-indent: 0px ; text-transform: none ; word-spacing: 0px&quot;&gt;&lt;span style=&quot;color: rgb(199 , 146 , 234)&quot;&gt;&amp;nbsp; template&lt;/span&gt;&lt;span style=&quot;color: rgb(137 , 221 , 255)&quot;&gt;&amp;lt;&lt;/span&gt;&lt;span style=&quot;color: rgb(199 , 146 , 234)&quot;&gt;class&lt;/span&gt;&lt;span&gt;&amp;nbsp;&lt;/span&gt;&lt;span style=&quot;color: rgb(255 , 203 , 107)&quot;&gt;I&lt;/span&gt;&lt;span style=&quot;color: rgb(137 , 221 , 255)&quot;&gt;&amp;gt;&lt;/span&gt;&lt;/div&gt;&lt;div style=&quot;color: rgb(238 , 255 , 255) ; font-family: &amp;#34;menlo&amp;#34; , &amp;#34;monaco&amp;#34; , &amp;#34;courier new&amp;#34; , monospace ; font-size: 15px ; font-style: normal ; font-weight: 400 ; letter-spacing: normal ; text-align: left ; text-indent: 0px ; text-transform: none ; word-spacing: 0px&quot;&gt;&lt;span style=&quot;color: rgb(199 , 146 , 234)&quot;&gt;&amp;nbsp; &amp;nbsp;inline&lt;/span&gt;&lt;span&gt;&amp;nbsp;&lt;/span&gt;&lt;span style=&quot;color: rgb(199 , 146 , 234)&quot;&gt;void&lt;/span&gt;&lt;span&gt;&amp;nbsp;&lt;/span&gt;&lt;span style=&quot;color: rgb(130 , 170 , 255)&quot;&gt;func&lt;/span&gt;&lt;span style=&quot;color: rgb(137 , 221 , 255)&quot;&gt;(&lt;/span&gt;&lt;span style=&quot;color: rgb(255 , 203 , 107)&quot;&gt;I&lt;/span&gt;&lt;span&gt;&amp;nbsp;&lt;/span&gt;&lt;span style=&quot;color: rgb(255 , 83 , 112)&quot;&gt;iter&lt;/span&gt;&lt;span style=&quot;color: rgb(137 , 221 , 255)&quot;&gt;)&lt;/span&gt;&lt;span&gt;&amp;nbsp;&lt;/span&gt;&lt;span style=&quot;color: rgb(137 , 221 , 255)&quot;&gt;{&lt;/span&gt;&lt;/div&gt;&lt;div style=&quot;color: rgb(238 , 255 , 255) ; font-family: &amp;#34;menlo&amp;#34; , &amp;#34;monaco&amp;#34; , &amp;#34;courier new&amp;#34; , monospace ; font-size: 15px ; font-style: normal ; font-weight: 400 ; letter-spacing: normal ; text-align: left ; text-indent: 0px ; text-transform: none ; word-spacing: 0px&quot;&gt;&lt;span style=&quot;color: rgb(74 , 74 , 74) ; font-style: italic&quot;&gt;&amp;nbsp; &amp;nbsp; &amp;nbsp;//func的工作全部在func_impl实现&lt;/span&gt;&lt;/div&gt;&lt;div style=&quot;font-family: &amp;#34;menlo&amp;#34; , &amp;#34;monaco&amp;#34; , &amp;#34;courier new&amp;#34; , monospace ; font-size: 15px ; font-style: normal ; font-weight: 400 ; letter-spacing: normal ; text-align: left ; text-indent: 0px ; text-transform: none ; word-spacing: 0px&quot;&gt;&lt;span style=&quot;color: rgb(130 , 170 , 255)&quot;&gt;&amp;nbsp; &amp;nbsp; &amp;nbsp;func_impl&lt;/span&gt;&lt;font color=&quot;#ffb570&quot;&gt;(iter,&amp;nbsp;*iter);&lt;/font&gt;&lt;/div&gt;&lt;div style=&quot;color: rgb(238 , 255 , 255) ; font-family: &amp;#34;menlo&amp;#34; , &amp;#34;monaco&amp;#34; , &amp;#34;courier new&amp;#34; , monospace ; font-size: 15px ; font-style: normal ; font-weight: 400 ; letter-spacing: normal ; text-align: left ; text-indent: 0px ; text-transform: none ; word-spacing: 0px&quot;&gt;&lt;span style=&quot;color: rgb(137 , 221 , 255)&quot;&gt;&amp;nbsp; }&lt;/span&gt;&lt;/div&gt;&lt;div style=&quot;color: rgb(238 , 255 , 255) ; font-family: &amp;#34;menlo&amp;#34; , &amp;#34;monaco&amp;#34; , &amp;#34;courier new&amp;#34; , monospace ; font-size: 15px ; font-style: normal ; font-weight: 400 ; letter-spacing: normal ; text-align: left ; text-indent: 0px ; text-transform: none ; word-spacing: 0px&quot;&gt;&lt;span style=&quot;color: rgb(199 , 146 , 234)&quot;&gt;&amp;nbsp;&lt;/span&gt;&lt;/div&gt;&lt;div style=&quot;color: rgb(238 , 255 , 255) ; font-family: &amp;#34;menlo&amp;#34; , &amp;#34;monaco&amp;#34; , &amp;#34;courier new&amp;#34; , monospace ; font-size: 15px ; font-style: normal ; font-weight: 400 ; letter-spacing: normal ; text-align: left ; text-indent: 0px ; text-transform: none ; word-spacing: 0px&quot;&gt;&lt;span style=&quot;color: rgb(199 , 146 , 234)&quot;&gt;&amp;nbsp;template&lt;/span&gt;&lt;span style=&quot;color: rgb(137 , 221 , 255)&quot;&gt;&amp;lt;&lt;/span&gt;&lt;span style=&quot;color: rgb(199 , 146 , 234)&quot;&gt;class&lt;/span&gt;&lt;span&gt;&amp;nbsp;&lt;/span&gt;&lt;span style=&quot;color: rgb(255 , 203 , 107)&quot;&gt;I&lt;/span&gt;&lt;span style=&quot;color: rgb(137 , 221 , 255)&quot;&gt;,&lt;/span&gt;&lt;span&gt;&amp;nbsp;&lt;/span&gt;&lt;span style=&quot;color: rgb(199 , 146 , 234)&quot;&gt;class&lt;/span&gt;&lt;span&gt;&amp;nbsp;&lt;/span&gt;&lt;span style=&quot;color: rgb(255 , 203 , 107)&quot;&gt;T&lt;/span&gt;&lt;span style=&quot;color: rgb(137 , 221 , 255)&quot;&gt;&amp;gt;&lt;/span&gt;&lt;/div&gt;&lt;div style=&quot;color: rgb(238 , 255 , 255) ; font-family: &amp;#34;menlo&amp;#34; , &amp;#34;monaco&amp;#34; , &amp;#34;courier new&amp;#34; , monospace ; font-size: 15px ; font-style: normal ; font-weight: 400 ; letter-spacing: normal ; text-align: left ; text-indent: 0px ; text-transform: none ; word-spacing: 0px&quot;&gt;&lt;span style=&quot;color: rgb(199 , 146 , 234)&quot;&gt;&amp;nbsp;void&lt;/span&gt;&lt;span&gt;&amp;nbsp;&lt;/span&gt;&lt;span style=&quot;color: rgb(130 , 170 , 255)&quot;&gt;func_impl&lt;/span&gt;&lt;span style=&quot;color: rgb(137 , 221 , 255)&quot;&gt;(&lt;/span&gt;&lt;span style=&quot;color: rgb(255 , 203 , 107)&quot;&gt;I&lt;/span&gt;&lt;span&gt;&amp;nbsp;&lt;/span&gt;&lt;span style=&quot;color: rgb(255 , 83 , 112)&quot;&gt;iter&lt;/span&gt;&lt;span style=&quot;color: rgb(137 , 221 , 255)&quot;&gt;,&lt;/span&gt;&lt;span&gt;&amp;nbsp;&lt;/span&gt;&lt;span style=&quot;color: rgb(255 , 203 , 107)&quot;&gt;T&lt;/span&gt;&lt;span&gt;&amp;nbsp;&lt;/span&gt;&lt;span style=&quot;color: rgb(255 , 83 , 112)&quot;&gt;t&lt;/span&gt;&lt;span style=&quot;color: rgb(137 , 221 , 255)&quot;&gt;)&lt;/span&gt;&lt;span&gt;&amp;nbsp;&lt;/span&gt;&lt;span style=&quot;color: rgb(137 , 221 , 255)&quot;&gt;{&lt;/span&gt;&lt;/div&gt;&lt;div style=&quot;font-family: &amp;#34;menlo&amp;#34; , &amp;#34;monaco&amp;#34; , &amp;#34;courier new&amp;#34; , monospace ; font-size: 15px ; font-style: normal ; font-weight: 400 ; letter-spacing: normal ; text-align: left ; text-indent: 0px ; text-transform: none ; word-spacing: 0px&quot;&gt;&lt;font color=&quot;#ffb570&quot;&gt;&amp;nbsp; &amp;nbsp; &amp;nbsp;T tmp&lt;/font&gt;&lt;span style=&quot;color: rgb(137 , 221 , 255)&quot;&gt;;&lt;/span&gt;&lt;span style=&quot;color: rgb(74 , 74 , 74) ; font-style: italic&quot;&gt;//T就是迭代器所指之物的类型&lt;/span&gt;&lt;/div&gt;&lt;div style=&quot;color: rgb(238 , 255 , 255) ; font-family: &amp;#34;menlo&amp;#34; , &amp;#34;monaco&amp;#34; , &amp;#34;courier new&amp;#34; , monospace ; font-size: 15px ; font-style: normal ; font-weight: 400 ; letter-spacing: normal ; text-align: left ; text-indent: 0px ; text-transform: none ; word-spacing: 0px&quot;&gt;&lt;span style=&quot;color: rgb(74 , 74 , 74) ; font-style: italic&quot;&gt;&amp;nbsp; &amp;nbsp; &amp;nbsp;//这里做原本func()应该做的事情&lt;/span&gt;&lt;/div&gt;&lt;div style=&quot;color: rgb(238 , 255 , 255) ; font-family: &amp;#34;menlo&amp;#34; , &amp;#34;monaco&amp;#34; , &amp;#34;courier new&amp;#34; , monospace ; font-size: 15px ; font-style: normal ; font-weight: 400 ; letter-spacing: normal ; text-align: left ; text-indent: 0px ; text-transform: none ; word-spacing: 0px&quot;&gt;&lt;span style=&quot;color: rgb(137 , 221 , 255)&quot;&gt;&amp;nbsp;}&lt;/span&gt;&lt;/div&gt;" style="text;whiteSpace=wrap;html=1;fontSize=15;strokeColor=#000000;dashed=1;strokeWidth=2;rounded=1;" parent="1" vertex="1">
          <mxGeometry x="27" y="760" width="345" height="240" as="geometry" />
        </mxCell>
        <mxCell id="s04vDubmSI25b-BMHzst-120" value="使用函数模板参数推导" style="ellipse;whiteSpace=wrap;html=1;dashed=1;strokeColor=#000000;fillColor=none;gradientColor=none;fontSize=15;" parent="1" vertex="1">
          <mxGeometry x="305" y="830" width="70" height="70" as="geometry" />
        </mxCell>
        <mxCell id="s04vDubmSI25b-BMHzst-121" value="" style="endArrow=none;dashed=1;html=1;fontSize=15;startArrow=block;startFill=1;entryX=0;entryY=0.5;entryDx=0;entryDy=0;" parent="1" target="s04vDubmSI25b-BMHzst-120" edge="1">
          <mxGeometry width="50" height="50" relative="1" as="geometry">
            <mxPoint x="229" y="885" as="sourcePoint" />
            <mxPoint x="279" y="835" as="targetPoint" />
          </mxGeometry>
        </mxCell>
        <mxCell id="s04vDubmSI25b-BMHzst-122" value="&lt;font face=&quot;courier new&quot;&gt;&lt;span style=&quot;font-size: 15px ; background-color: rgb(239 , 239 , 239)&quot;&gt;算法函数体重对迭代器类型的需求&lt;/span&gt;&lt;/font&gt;" style="text;whiteSpace=wrap;html=1;" parent="1" vertex="1">
          <mxGeometry x="89.5" y="1020" width="241" height="30" as="geometry" />
        </mxCell>
        <mxCell id="s04vDubmSI25b-BMHzst-125" value="&lt;div style=&quot;color: rgb(238 , 255 , 255) ; font-family: &amp;#34;menlo&amp;#34; , &amp;#34;monaco&amp;#34; , &amp;#34;courier new&amp;#34; , monospace ; font-size: 15px ; font-style: normal ; font-weight: 400 ; letter-spacing: normal ; text-align: left ; text-indent: 0px ; text-transform: none ; word-spacing: 0px&quot;&gt;&lt;span style=&quot;color: rgb(199 , 146 , 234)&quot;&gt;&amp;nbsp;&lt;/span&gt;&lt;/div&gt;&lt;div style=&quot;color: rgb(238 , 255 , 255) ; font-family: &amp;#34;menlo&amp;#34; , &amp;#34;monaco&amp;#34; , &amp;#34;courier new&amp;#34; , monospace ; font-size: 15px ; font-style: normal ; font-weight: 400 ; letter-spacing: normal ; text-align: left ; text-indent: 0px ; text-transform: none ; word-spacing: 0px&quot;&gt;&lt;span style=&quot;color: rgb(199 , 146 , 234)&quot;&gt;&amp;nbsp;template&lt;/span&gt;&lt;span style=&quot;color: rgb(137 , 221 , 255)&quot;&gt;&amp;lt;&lt;/span&gt;&lt;span style=&quot;color: rgb(199 , 146 , 234)&quot;&gt;class&lt;/span&gt;&lt;span style=&quot;color: rgb(238 , 255 , 255)&quot;&gt;&lt;span&gt;&amp;nbsp;&lt;/span&gt;&lt;/span&gt;&lt;span style=&quot;color: rgb(255 , 203 , 107)&quot;&gt;I&lt;/span&gt;&lt;span style=&quot;color: rgb(137 , 221 , 255)&quot;&gt;&amp;gt;&lt;/span&gt;&lt;/div&gt;&lt;div style=&quot;font-family: &amp;#34;menlo&amp;#34; , &amp;#34;monaco&amp;#34; , &amp;#34;courier new&amp;#34; , monospace ; font-size: 15px ; font-style: normal ; font-weight: 400 ; letter-spacing: normal ; text-align: left ; text-indent: 0px ; text-transform: none ; word-spacing: 0px&quot;&gt;&lt;span style=&quot;color: rgb(199 , 146 , 234)&quot;&gt;&amp;nbsp; &amp;nbsp;typename&lt;/span&gt;&lt;span style=&quot;color: rgb(238 , 255 , 255)&quot;&gt;&lt;span&gt;&amp;nbsp;&lt;/span&gt;&lt;/span&gt;&lt;span style=&quot;color: rgb(255 , 203 , 107)&quot;&gt;I&lt;/span&gt;&lt;span style=&quot;color: rgb(137 , 221 , 255)&quot;&gt;::&lt;/span&gt;&lt;span style=&quot;color: rgb(255 , 203 , 107)&quot;&gt;value_type&lt;/span&gt;&lt;span style=&quot;color: rgb(238 , 255 , 255)&quot;&gt;&lt;span&gt;&amp;nbsp;&lt;/span&gt;&lt;/span&gt;&lt;span style=&quot;color: rgb(130 , 170 , 255)&quot;&gt;func&lt;/span&gt;&lt;span style=&quot;color: rgb(137 , 221 , 255)&quot;&gt;(&lt;/span&gt;&lt;font color=&quot;#ffb570&quot;&gt;I iter&lt;/font&gt;&lt;span style=&quot;color: rgb(137 , 221 , 255)&quot;&gt;)&lt;/span&gt;&lt;span style=&quot;color: rgb(238 , 255 , 255)&quot;&gt;&lt;span&gt;&amp;nbsp;&lt;/span&gt;&lt;/span&gt;&lt;span style=&quot;color: rgb(137 , 221 , 255)&quot;&gt;{&lt;/span&gt;&lt;/div&gt;&lt;div style=&quot;font-family: &amp;#34;menlo&amp;#34; , &amp;#34;monaco&amp;#34; , &amp;#34;courier new&amp;#34; , monospace ; font-size: 15px ; font-style: normal ; font-weight: 400 ; letter-spacing: normal ; text-align: left ; text-indent: 0px ; text-transform: none ; word-spacing: 0px&quot;&gt;&lt;span style=&quot;color: rgb(238 , 255 , 255)&quot;&gt;&lt;/span&gt;&lt;span style=&quot;color: rgb(137 , 221 , 255) ; font-style: italic&quot;&gt;&amp;nbsp; return&lt;/span&gt;&lt;span style=&quot;color: rgb(238 , 255 , 255)&quot;&gt;&lt;span&gt;&amp;nbsp;&lt;/span&gt;&lt;/span&gt;&lt;span style=&quot;color: rgb(199 , 146 , 234)&quot;&gt;*&lt;/span&gt;&lt;font color=&quot;#ffb570&quot;&gt;iter&lt;/font&gt;&lt;span style=&quot;color: rgb(137 , 221 , 255)&quot;&gt;;&lt;/span&gt;&lt;span style=&quot;color: rgb(74 , 74 , 74) ; font-style: italic&quot;&gt;//func的返回类型&lt;/span&gt;&lt;/div&gt;&lt;div style=&quot;color: rgb(238 , 255 , 255) ; font-family: &amp;#34;menlo&amp;#34; , &amp;#34;monaco&amp;#34; , &amp;#34;courier new&amp;#34; , monospace ; font-size: 15px ; font-style: normal ; font-weight: 400 ; letter-spacing: normal ; text-align: left ; text-indent: 0px ; text-transform: none ; word-spacing: 0px&quot;&gt;&lt;span style=&quot;color: rgb(137 , 221 , 255)&quot;&gt;&amp;nbsp;}&lt;/span&gt;&lt;/div&gt;&lt;div style=&quot;color: rgb(238 , 255 , 255) ; font-family: &amp;#34;menlo&amp;#34; , &amp;#34;monaco&amp;#34; , &amp;#34;courier new&amp;#34; , monospace ; font-size: 15px ; font-style: normal ; font-weight: 400 ; letter-spacing: normal ; text-align: left ; text-indent: 0px ; text-transform: none ; word-spacing: 0px&quot;&gt;&lt;span style=&quot;color: rgb(137 , 221 , 255)&quot;&gt;&lt;br&gt;&lt;/span&gt;&lt;/div&gt;&lt;div style=&quot;color: rgb(238 , 255 , 255) ; font-family: &amp;#34;menlo&amp;#34; , &amp;#34;monaco&amp;#34; , &amp;#34;courier new&amp;#34; , monospace ; font-size: 15px ; font-style: normal ; font-weight: 400 ; letter-spacing: normal ; text-align: left ; text-indent: 0px ; text-transform: none ; word-spacing: 0px&quot;&gt;&lt;div style=&quot;color: rgb(0 , 0 , 0)&quot;&gt;&lt;font color=&quot;#666666&quot;&gt;&amp;nbsp;返回类型必须加上关键字 typename 因为&lt;/font&gt;&lt;/div&gt;&lt;div style=&quot;color: rgb(0 , 0 , 0)&quot;&gt;&lt;font color=&quot;#666666&quot;&gt;&amp;nbsp;T 是一个 template 参数，在它被编译器具体实现之前&lt;/font&gt;&lt;/div&gt;&lt;div style=&quot;color: rgb(0 , 0 , 0)&quot;&gt;&lt;font color=&quot;#666666&quot;&gt;&amp;nbsp;编译器对T一无所知，因此不知道&amp;nbsp;MyIter&amp;lt;T&amp;gt;::value&amp;nbsp; &amp;nbsp;代表的是一个类型&lt;/font&gt;&lt;span style=&quot;color: rgb(102 , 102 , 102)&quot;&gt;或者一个 member function 或是一&amp;nbsp; &amp;nbsp;个 data member&amp;nbsp;&lt;/span&gt;&lt;span style=&quot;color: rgb(102 , 102 , 102)&quot;&gt;所以需要关键字 typename 告诉编译 器这是一个类型&lt;/span&gt;&lt;/div&gt;&lt;/div&gt;" style="text;whiteSpace=wrap;html=1;fontSize=15;dashed=1;strokeWidth=2;rounded=1;strokeColor=#000000;" parent="1" vertex="1">
          <mxGeometry x="392" y="760" width="400" height="245" as="geometry" />
        </mxCell>
        <mxCell id="s04vDubmSI25b-BMHzst-128" value="&lt;font face=&quot;courier new&quot;&gt;&lt;span style=&quot;font-size: 15px ; background-color: rgb(239 , 239 , 239)&quot;&gt;算法返回类型对迭代器类型的需求&lt;/span&gt;&lt;/font&gt;" style="text;whiteSpace=wrap;html=1;" parent="1" vertex="1">
          <mxGeometry x="471.5" y="1020" width="241" height="30" as="geometry" />
        </mxCell>
      </root>
    </mxGraphModel>
  </diagram>
</mxfile>
